<svg width="128" height="128" viewBox="0 0 128 128" fill="none" xmlns="http://www.w3.org/2000/svg">
<g clip-path="url(#clip0_510_2150)">
<path d="M80.0127 36.6348C79.2719 35.3192 77.952 34.532 76.4704 34.532H51.9745C50.4455 34.532 49.0834 35.3682 48.3548 36.7641C47.6559 38.0983 47.7872 39.734 48.528 41.0496L50.2662 44.1487L52.6375 48.367C53.3722 49.6704 54.7222 50.482 56.1856 50.482H72.2536C73.717 50.482 75.0727 49.6704 75.8017 48.367L78.1608 44.1487L80.0066 40.853C80.0306 40.8101 80.0543 40.7732 80.0844 40.7363C80.7593 39.445 80.7356 37.9139 80.0066 36.6348H80.0127Z" fill="#9D15FF"/>
<path d="M51.1925 49.2276L48.5883 44.5852L46.9754 41.7076C46.6109 41.0497 46.0853 40.527 45.4701 40.1579C44.8609 39.8013 44.156 39.5923 43.4273 39.5923C42.1072 39.5923 40.9067 40.2256 40.1362 41.3017C40.0526 41.4309 39.9629 41.5662 39.8854 41.7012L38.4457 44.2777H38.4397L35.2322 50.0145H35.2262L28.3929 62.2017L27.6462 63.5359C27.479 63.8248 27.3535 64.1323 27.2639 64.4459C26.8817 65.7555 27.1385 67.176 28.0106 68.3133C28.799 69.3404 30.0534 69.8692 31.3257 69.8692H33.7687H39.6224C41.08 69.8631 42.4418 69.0576 43.1644 67.7538L44.8609 64.7348L51.2044 53.4334C51.9272 52.1299 51.9272 50.5125 51.1986 49.2151L51.1925 49.2276Z" fill="#9D15FF"/>
<path d="M101.218 64.569C101.134 64.2185 100.991 63.8742 100.812 63.5484L100.107 62.3001L93.2318 50.0331L90.1196 44.487L88.5666 41.7137C88.5307 41.646 88.4888 41.5784 88.4411 41.5171C87.6945 40.3179 86.4223 39.6108 85.0125 39.6108C83.5251 39.6108 82.1992 40.398 81.4644 41.7137L79.8518 44.5916L77.2473 49.2337C76.5126 50.5375 76.5126 52.1545 77.2473 53.4519L83.5911 64.7595L85.2812 67.7724C86.0159 69.0822 87.3659 69.8877 88.8296 69.8877H94.6653H97.1024C98.2012 69.8877 99.7363 69.2358 100.429 68.3566C101.295 67.2436 101.57 65.8542 101.218 64.5751V64.569Z" fill="#9D15FF"/>
<path d="M51.1905 88.0325L48.2218 82.7321L43.1566 73.6995C42.4219 72.3961 41.078 71.5967 39.6144 71.5967H31.3416C31.2341 71.5967 31.1266 71.5967 31.0191 71.615C29.8543 71.6951 28.7254 72.2114 27.9907 73.1708C27.7338 73.5027 27.5307 73.8531 27.3934 74.2344H27.3874C26.9155 75.4333 26.9872 76.774 27.6383 77.9299L33.7847 88.887L39.8892 99.7643C40.4269 100.724 41.275 101.4 42.2784 101.701C42.6429 101.812 43.0429 101.873 43.4433 101.873C43.9689 101.873 44.4647 101.781 44.9307 101.59C45.7727 101.259 46.4837 100.637 46.9673 99.8012C46.9734 99.7829 46.9853 99.7768 46.9913 99.7582L48.3115 97.3969H48.3173L51.2024 92.2443C51.4592 91.771 51.6325 91.2544 51.7042 90.7318C51.8298 89.8156 51.6623 88.8688 51.1966 88.0325H51.1905Z" fill="#9D15FF"/>
<path d="M101.07 74.2588C101.004 74.0684 100.915 73.8901 100.813 73.7118C100.091 72.4266 98.8242 71.6458 97.4025 71.6086C97.4025 71.6025 97.3967 71.6025 97.3967 71.6025H88.8311C87.3675 71.6025 86.0117 72.4144 85.2831 73.7179L80.2176 82.7382L77.2489 88.0383C76.8309 88.764 76.6577 89.6063 76.7176 90.4179C76.7531 91.0329 76.9145 91.6476 77.2252 92.2072C77.231 92.2258 77.2431 92.2319 77.2489 92.2505L79.6443 96.5299H79.6504L81.4603 99.7644C81.466 99.7826 81.4782 99.8012 81.484 99.8134C82.0336 100.766 82.8877 101.431 83.8973 101.719C84.2556 101.824 84.632 101.873 85.0141 101.873C85.498 101.873 85.964 101.787 86.3999 101.627C87.296 101.301 88.0606 100.662 88.5621 99.7705L94.6548 88.8993L100.807 77.9358C101.446 76.7862 101.53 75.4517 101.064 74.2649L101.07 74.2588Z" fill="#9D15FF"/>
<path d="M80.5458 101.849C80.4385 101.449 80.2652 101.056 80.0561 100.687C80.05 100.662 80.0382 100.644 80.0202 100.619L76.8603 94.993L75.8031 93.1114C75.8031 93.1114 75.7852 93.0745 75.7794 93.0684C75.4985 92.5704 75.1222 92.1523 74.6802 91.8262C73.9874 91.2974 73.139 90.9963 72.2493 90.9963H56.1812C55.4167 90.9963 54.6759 91.2176 54.043 91.6296C53.4755 91.9737 52.9977 92.4659 52.6572 93.0684C52.6511 93.0745 52.6393 93.0928 52.6332 93.1053L51.8748 94.4581L48.4161 100.619C48.4161 100.619 48.3924 100.668 48.3744 100.699C48.1474 101.068 47.9443 101.455 47.8428 101.861C47.7951 102.052 47.765 102.236 47.7771 102.427C47.8367 104.407 48.8523 105.956 50.3038 106.589C50.8114 106.835 51.379 106.959 51.9641 106.959H76.4603C77.0993 106.959 77.7088 106.811 78.2462 106.54C79.5126 105.913 80.4145 104.604 80.6175 102.894C80.6595 102.544 80.6236 102.193 80.5339 101.861L80.5458 101.849Z" fill="#9D15FF"/>
<path d="M64.2555 0H64.0643C58.0017 0.067637 51.4252 12.5743 50.7622 18.7047C50.5889 20.2296 50.7145 21.6992 51.1266 23.1073C51.6583 24.9519 52.6915 26.6859 54.1908 28.2169C54.8419 28.8749 55.4392 29.6004 55.9648 30.3567C56.6995 31.4203 57.9239 32.0539 59.2201 32.0539H69.3566C70.6829 32.0539 71.9131 31.396 72.6599 30.2952C73.1676 29.5389 73.747 28.8134 74.3981 28.1555C75.8076 26.692 76.8111 24.9642 77.3549 23.095C77.6774 22.0251 77.8385 20.9122 77.8385 19.7746C77.8328 14.4251 72.7256 0.135274 64.2555 0Z" fill="black"/>
<path d="M92.146 37.8213C91.0827 37.1386 89.8342 38.3686 90.4616 39.4877V39.4999L95.2639 48.0527C95.2639 48.0652 95.2761 48.0652 95.2761 48.0652L103.005 61.8508C103.155 62.1215 103.292 62.3857 103.405 62.6563C103.465 62.7916 103.519 62.933 103.567 63.0684C104.23 64.8759 105.436 66.3887 106.942 67.5386C109.856 69.7643 112.777 72.9862 114.85 77.6287C115.406 78.8462 116.576 79.6026 117.89 79.6026C117.968 79.6026 118.052 79.6026 118.129 79.5901C119.557 79.4981 120.752 78.5387 121.17 77.149C121.283 76.7616 121.385 76.3682 121.462 75.9317C122.914 68.8972 120.047 55.7327 92.1399 37.8152L92.146 37.8213Z" fill="black"/>
<path d="M6.61966 76.4178C6.68537 76.7189 6.76899 77.0142 6.84664 77.297C7.25282 78.6867 8.4594 79.6458 9.887 79.7382C9.96464 79.7504 10.0483 79.7504 10.114 79.7504C11.4281 79.7504 12.6107 78.9879 13.1543 77.7767C15.2808 73.0176 18.3032 69.7523 21.2958 67.5203C22.8309 66.3768 24.0852 64.8704 24.796 63.0564C24.8558 62.9089 24.9155 62.7672 24.9812 62.6197C25.0708 62.4106 25.1843 62.2016 25.2978 61.9864L33.051 48.1761L37.9966 39.3526V39.3405C38.624 38.215 37.3756 36.9853 36.3064 37.6679C7.52759 56.0283 5.00093 69.4327 6.61966 76.4178Z" fill="black"/>
<path d="M53.5349 112.025C52.9318 112.222 52.3223 112.48 51.6952 112.806C50.0048 113.686 44.3663 117.154 43.082 124.901C42.819 126.407 41.708 127.564 40.2328 127.871C39.9938 127.92 39.7431 127.938 39.5041 127.938C38.2794 127.938 37.1328 127.305 36.4636 126.211C34.4566 122.915 33.0231 116.465 39.6771 105.52C39.8446 105.225 40.0297 104.936 40.2088 104.641C40.4836 104.757 40.7644 104.85 41.0511 104.923C41.708 105.108 42.4011 105.206 43.1178 105.206H43.2312C43.4942 105.206 43.751 105.182 44.0079 105.157C45.5251 104.979 46.9346 105.79 47.538 107.235C47.6575 107.525 47.7949 107.807 47.9502 108.084C48.4816 109.019 49.1625 109.812 49.9571 110.457C50.9784 111.275 52.2029 111.822 53.5349 112.038V112.025Z" fill="black"/>
<path d="M92.4476 126.272C91.7785 127.373 90.6316 128 89.4072 128C89.1682 128 88.9175 127.975 88.6785 127.932C87.203 127.631 86.092 126.469 85.8293 124.962C84.545 117.215 78.9062 113.747 77.2158 112.868C76.547 112.517 75.9017 112.247 75.2627 112.038C76.547 111.792 77.7116 111.22 78.715 110.377C79.4439 109.756 80.065 109.012 80.5668 108.133L80.5908 108.09C81.5642 106.331 83.3802 105.249 85.3454 105.262H85.4171C85.5065 105.262 85.5962 105.262 85.6919 105.249C86.3072 105.237 86.8923 105.145 87.4717 104.979H87.4839C87.8778 104.887 88.2663 104.745 88.6305 104.573C88.9053 104.991 89.1622 105.415 89.4011 105.833H89.4129C95.8701 116.631 94.4544 123.007 92.4533 126.266L92.4476 126.272Z" fill="black"/>
</g>
<defs>
<clipPath id="clip0_510_2150">
<rect width="115.512" height="128" fill="white" transform="translate(6.24414)"/>
</clipPath>
</defs>
</svg>
